<svg viewBox="0 0 28 28" xmlns="http://www.w3.org/2000/svg" width="28.000000" height="28.000000" fill="none">
    <defs>
       <linearGradient id="paint_linear_0" x1="0" x2="27.9999943" y1="0" y2="27.9999943" gradientUnits="userSpaceOnUse">
          <stop stop-color="rgb(68,154,255)" offset="0.00499924878" stop-opacity="1" />
          <stop stop-color="rgb(20,118,255)" offset="0.501534343" stop-opacity="1" />
          <stop stop-color="rgb(53,137,255)" offset="1" stop-opacity="1" />
       </linearGradient>
    </defs>
    <g id="logo">
       <!-- Scale bumped to 1.32 and re-centered at (1.8, 1.2) to maximize usage of the 28x28 frame -->
       <path d="M4.15123 2.7643C4.18321 2.84158 4.18143 2.9297 4.13961 3.00212L1.89241 6.8944C1.85154 6.96518 1.77848 7.01045 1.69767 7.0227C0.736558 7.16843 0 7.9982 0 9C0 10.0485 0.806801 10.9085 1.83344 10.9932C1.92139 11.0004 2.00266 11.0467 2.04678 11.1231L4.20341 14.8585C4.2485 14.9366 4.2469 15.0324 4.20686 15.1132C4.07444 15.3804 4 15.6815 4 16C4 17.1046 4.89543 18 6 18C6.76952 18 7.43754 17.5654 7.77199 16.9283C7.81867 16.8393 7.90808 16.7785 8.00852 16.7785L11.9915 16.7785C12.0919 16.7785 12.1813 16.8393 12.228 16.9283C12.5625 17.5654 13.2305 18 14 18C15.1046 18 16 17.1046 16 16C16 14.8954 15.1046 14 14 14C13.9047 14 13.811 14.0067 13.7193 14.0195C13.6116 14.0347 13.5019 13.9899 13.446 13.8966L12.4897 12.3028C12.4497 12.2361 12.4665 12.1502 12.5268 12.101C12.6317 12.0155 12.7322 11.9246 12.8284 11.8284C12.9246 11.7322 13.0155 11.6317 13.101 11.5268C13.177 11.4337 13.2487 11.3371 13.3162 11.2372C13.3968 11.1179 13.4705 10.9951 13.5374 10.8686C13.5911 10.7672 13.6404 10.6634 13.6852 10.5573C13.7363 10.4365 13.7813 10.3138 13.82 10.1891C13.8592 10.0631 13.8921 9.93503 13.9187 9.80504C13.937 9.71586 13.9522 9.62627 13.9643 9.53627C13.9881 9.35911 14 9.18036 14 9C14 8.81965 13.9881 8.64091 13.9643 8.46376C13.9522 8.37375 13.937 8.28415 13.9187 8.19496C13.8921 8.06494 13.8592 7.93688 13.82 7.81078C13.7812 7.68617 13.7363 7.56348 13.6852 7.4427C13.6404 7.33659 13.5911 7.23281 13.5374 7.13135C13.4705 7.0049 13.3968 6.88206 13.3162 6.76284C13.2487 6.66285 13.1769 6.56629 13.101 6.47315C13.0155 6.36828 12.9246 6.26775 12.8284 6.17157C12.7323 6.0754 12.6317 5.98456 12.5269 5.89904C12.4337 5.82307 12.3372 5.75131 12.2372 5.68375C12.1179 5.60317 11.995 5.52942 11.8685 5.4625C11.7671 5.40887 11.6633 5.35962 11.5573 5.31477C11.4365 5.26368 11.3138 5.21876 11.1892 5.17999C11.0631 5.14077 10.9351 5.10786 10.805 5.08125C10.7159 5.063 10.6263 5.04783 10.5363 5.03573C10.3591 5.01191 10.1804 5 10 5C9.81965 5 9.64091 5.01191 9.46376 5.03572C9.37375 5.04782 9.28415 5.063 9.19496 5.08125C9.06496 5.10785 8.93692 5.14076 8.81084 5.17998C8.68621 5.21874 8.5635 5.26367 8.4427 5.31477C8.33664 5.35963 8.2329 5.40888 8.13149 5.46252C8.00499 5.52943 7.88211 5.60318 7.76284 5.68375C7.66284 5.75131 7.56627 5.82307 7.47312 5.89904C7.36826 5.98456 7.26774 6.0754 7.17157 6.17157C7.0754 6.26775 6.98455 6.36827 6.89903 6.47313C6.82307 6.56627 6.75131 6.66284 6.68375 6.76284C6.60317 6.88211 6.52943 7.00499 6.46252 7.13149L6.46249 7.13155C6.40886 7.23295 6.35962 7.33666 6.31477 7.4427C6.26368 7.56348 6.21875 7.68618 6.17999 7.81079C6.14077 7.93689 6.10786 8.06494 6.08125 8.19496C6.063 8.28414 6.04783 8.37373 6.03573 8.46373C6.01191 8.64089 6 8.81964 6 9C6 9.18035 6.01191 9.3591 6.03572 9.53625C6.04782 9.62626 6.063 9.71586 6.08125 9.80504C6.10785 9.93505 6.14077 10.0631 6.17999 10.1892C6.21875 10.3138 6.26368 10.4365 6.31477 10.5573C6.35963 10.6634 6.40888 10.7671 6.46253 10.8685C6.52944 10.995 6.60318 11.1179 6.68375 11.2372C6.75131 11.3372 6.82307 11.4337 6.89904 11.5269C6.98455 11.6317 7.0754 11.7323 7.17157 11.8284C7.26777 11.9246 7.36832 12.0155 7.47322 12.101C7.56633 12.177 7.66287 12.2487 7.76284 12.3162C7.88208 12.3968 8.00494 12.4705 8.13141 12.5374C8.23285 12.5911 8.33661 12.6404 8.4427 12.6852C8.56352 12.7363 8.68626 12.7813 8.81091 12.82C8.93697 12.8593 9.06498 12.8922 9.19496 12.9187C9.28414 12.937 9.37373 12.9522 9.46373 12.9643C9.64089 12.9881 9.81964 13 10 13C10.1804 13 10.3591 12.9881 10.5362 12.9643C10.6263 12.9522 10.7159 12.937 10.805 12.9187C10.9351 12.8921 11.0631 12.8592 11.1892 12.82C11.2357 12.8055 11.2864 12.8241 11.3115 12.8659L12.3509 14.5982C12.4048 14.688 12.3957 14.801 12.3374 14.888C12.2525 15.0146 12.1818 15.1514 12.1273 15.2962C12.0876 15.402 11.9901 15.4785 11.8771 15.4785L8.12291 15.4785C8.00988 15.4785 7.91244 15.402 7.87266 15.2962C7.58791 14.5389 6.85688 14 6 14C5.82296 14 5.65129 14.023 5.48782 14.0662C5.36899 14.0976 5.23963 14.0533 5.17818 13.9469L3.3404 10.7637C3.27813 10.6559 3.30603 10.5198 3.39525 10.4329C3.76831 10.0696 4 9.56187 4 9C4 8.39801 3.73403 7.85814 3.3132 7.49148C3.21479 7.40574 3.18087 7.26272 3.24613 7.14969L5.05503 4.01657C5.1195 3.90491 5.25791 3.86231 5.38052 3.90221C5.57557 3.96569 5.78378 4 6 4C6.93697 4 7.72346 3.35568 7.94055 2.48595C7.97084 2.3646 8.07499 2.27163 8.20006 2.27163L11.7999 2.27163C11.925 2.27163 12.0292 2.3646 12.0594 2.48595C12.2765 3.35568 13.063 4 14 4C14.1481 4 14.2924 3.98391 14.4313 3.95338C14.547 3.92794 14.6699 3.97317 14.7291 4.07578L16.5928 7.30378C16.6529 7.40785 16.6291 7.53883 16.5465 7.62614C16.2077 7.98445 16 8.46796 16 9C16 10.1046 16.8954 11 18 11C19.1046 11 20 10.1046 20 9C20 7.89543 19.1046 7 18 7C17.9504 7 17.9039 6.97472 17.8791 6.9318L15.746 3.23706C15.6986 3.15494 15.7029 3.0537 15.749 2.97083C15.9089 2.68334 16 2.35231 16 2C16 0.89543 15.1046 0 14 0C13.3222 0 12.7231 0.337213 12.3614 0.853034C12.311 0.924897 12.2306 0.971629 12.1428 0.971629L7.85718 0.971629C7.76941 0.971629 7.68904 0.924897 7.63864 0.853034C7.27693 0.337213 6.67784 0 6 0C4.89543 0 4 0.89543 4 2C4 2.27069 4.05378 2.52883 4.15123 2.7643ZM9.55457 7.12411C9.45103 7.1486 9.34958 7.18186 9.25019 7.22389C9.14591 7.268 9.04698 7.32037 8.9534 7.381L8.95338 7.38102C8.84019 7.45436 8.73484 7.5398 8.63732 7.63732C8.53979 7.73484 8.45436 7.84019 8.38102 7.95338C8.32038 8.04696 8.268 8.1459 8.22389 8.25019C8.18186 8.34957 8.1486 8.45103 8.12411 8.55456C8.08995 8.699 8.07287 8.84748 8.07287 9C8.07287 9.15252 8.08995 9.30099 8.12411 9.44543C8.1486 9.54897 8.18186 9.65042 8.22389 9.74981C8.26801 9.8541 8.32038 9.95304 8.38103 10.0466C8.45437 10.1598 8.5398 10.2652 8.63732 10.3627C8.73484 10.4602 8.84019 10.5456 8.95338 10.619C9.04696 10.6796 9.1459 10.732 9.25019 10.7761C9.34958 10.8181 9.45104 10.8514 9.55457 10.8759C9.69901 10.91 9.84748 10.9271 10 10.9271C10.1525 10.9271 10.301 10.91 10.4454 10.8759C10.549 10.8514 10.6504 10.8181 10.7498 10.7761C10.8541 10.732 10.953 10.6796 11.0466 10.619C11.1598 10.5456 11.2652 10.4602 11.3627 10.3627C11.4602 10.2652 11.5456 10.1598 11.619 10.0466C11.6796 9.95304 11.732 9.8541 11.7761 9.74981C11.8181 9.65042 11.8514 9.54897 11.8759 9.44543C11.91 9.30099 11.9271 9.15252 11.9271 9C11.9271 8.84748 11.91 8.69901 11.8759 8.55457C11.8514 8.45103 11.8181 8.34958 11.7761 8.25019C11.732 8.1459 11.6796 8.04696 11.619 7.95337C11.5456 7.84019 11.4602 7.73484 11.3627 7.63732C11.2652 7.53979 11.1598 7.45436 11.0466 7.38101C10.953 7.32038 10.8541 7.268 10.7498 7.22389C10.6504 7.18186 10.549 7.1486 10.4454 7.12411C10.301 7.08995 10.1525 7.07287 10 7.07287C9.84748 7.07287 9.69901 7.08995 9.55457 7.12411Z" fill="url(#paint_linear_0)" fill-rule="evenodd" transform="matrix(0,1.32,1.32,0,1.8,1.2)" />
    </g>
</svg>
